<svg width="22" height="22" viewBox="0 0 22 22" fill="none" xmlns="http://www.w3.org/2000/svg">
<path d="M21.2326 22H0.767442C0.347907 22 0 21.6521 0 21.2326C0 20.813 0.347907 20.4651 0.767442 20.4651H21.2326C21.6521 20.4651 22 20.813 22 21.2326C22 21.6521 21.6521 22 21.2326 22Z" fill="#A9A9A9"/>
<path d="M13.3023 22H8.69767C8.27814 22 7.93023 21.6521 7.93023 21.2326V2.81395C7.93023 1.05395 8.90233 0 10.5395 0H11.4605C13.0977 0 14.0698 1.05395 14.0698 2.81395V21.2326C14.0698 21.6521 13.7219 22 13.3023 22ZM9.46512 20.4651H12.5349V2.81395C12.5349 1.63721 11.9823 1.53488 11.4605 1.53488H10.5395C10.0177 1.53488 9.46512 1.63721 9.46512 2.81395V20.4651Z" fill="#A9A9A9"/>
<path d="M5.88372 22H1.7907C1.37116 22 1.02326 21.6521 1.02326 21.2326V8.95349C1.02326 7.19349 1.92372 6.13953 3.42791 6.13953H4.24651C5.7507 6.13953 6.65116 7.19349 6.65116 8.95349V21.2326C6.65116 21.6521 6.30326 22 5.88372 22ZM2.55814 20.4651H5.11628V8.95349C5.11628 7.67442 4.55349 7.67442 4.24651 7.67442H3.42791C3.12093 7.67442 2.55814 7.67442 2.55814 8.95349V20.4651Z" fill="#A9A9A9"/>
<path d="M20.2093 22H16.1163C15.6967 22 15.3488 21.6521 15.3488 21.2326V14.0698C15.3488 12.3098 16.2493 11.2558 17.7535 11.2558H18.5721C20.0763 11.2558 20.9767 12.3098 20.9767 14.0698V21.2326C20.9767 21.6521 20.6288 22 20.2093 22ZM16.8837 20.4651H19.4419V14.0698C19.4419 12.7907 18.8791 12.7907 18.5721 12.7907H17.7535C17.4465 12.7907 16.8837 12.7907 16.8837 14.0698V20.4651Z" fill="#A9A9A9"/>
</svg>
