<svg width="30" height="33" viewBox="0 0 30 33" fill="none" xmlns="http://www.w3.org/2000/svg">
<path d="M13.298 32.2315V4.16713C13.298 3.03322 13.4681 0.765391 10.7467 0.765391C8.06385 0.765391 7.49689 3.93926 9.04585 5.28069M13.298 32.2315C10.2621 32.2315 9.25829 29.5221 10.2865 27.7303M7.96412 3.16933C7.19297 3.02858 6.39572 3.10998 5.64298 3.40632C4.89025 3.70267 4.20526 4.20481 3.64871 4.86826C3.09215 5.53172 2.6812 6.33601 2.45226 7.2099C2.22331 8.08379 2.18344 9.0003 2.33618 9.87824C2.48892 10.7562 2.82955 11.5685 3.32789 12.2431C3.82624 12.9178 4.46692 13.434 5.19319 13.7461M5.15945 24.6361C4.9069 25.1252 4.78127 25.6893 4.79369 26.2784C4.80611 26.8675 4.95619 27.4634 5.23064 28.0135C5.5051 28.5635 5.89545 29.0505 6.36713 29.4316C6.83881 29.8126 7.37725 30.0758 7.93476 30.1978C8.49227 30.3199 9.05163 30.297 9.56332 30.1313M3.34955 12.6328C2.86266 12.6878 2.39967 12.8773 2.00159 13.1845C1.6035 13.4917 1.28262 13.9071 1.06736 14.3939C0.852092 14.8807 0.749094 15.4239 0.767485 15.9754C0.785876 16.5268 0.925088 17.0695 1.17279 17.5554C1.42049 18.0412 1.76904 18.4553 2.18756 18.7608C2.60608 19.0664 3.08164 19.254 3.57214 19.307M2.63741 19.2063C2.15738 19.5352 1.76597 19.9775 1.49784 20.494C1.22972 21.0106 1.09317 21.5855 1.10027 22.1678C1.10738 22.7501 1.25792 23.3218 1.53858 23.8323C1.81923 24.3427 2.22133 24.7762 2.70925 25.0943C3.19718 25.4125 3.75587 25.6054 4.33584 25.656" stroke="#3A6FF8" stroke-width="1.5" stroke-linecap="round"/>
<path d="M7.57571 16.6C8.08462 16.6191 8.58978 16.4943 9.04645 16.2366C9.50313 15.9789 9.89721 15.5964 10.1938 15.1229C10.4904 14.6494 10.6803 14.0995 10.7468 13.5219C10.8132 12.9443 10.7542 12.3569 10.5748 11.8117C10.3955 11.2665 10.1013 10.7803 9.71852 10.3962" stroke="#3A6FF8" stroke-width="1.5" stroke-linecap="round" stroke-linejoin="round"/>
<path d="M13.2234 21.0804C12.6934 21.081 12.1835 21.2022 11.7389 21.4335C11.2943 21.6648 10.9287 21.9988 10.6745 22.4062C10.4203 22.8135 10.2853 23.2815 10.2816 23.7687" stroke="#3A6FF8" stroke-width="1.5" stroke-linecap="round" stroke-linejoin="round"/>
<path d="M5.74025 20.1051C6.03019 20.1018 6.30787 20.1725 6.54868 20.3111C6.78949 20.4496 6.986 20.6515 7.12081 20.8991C7.25562 21.1467 7.32456 21.4322 7.32153 21.7304" stroke="#3A6FF8" stroke-width="1.5" stroke-linecap="round" stroke-linejoin="round"/>
<path d="M7.345 7.56888C7.136 7.5044 6.91257 7.50004 6.69448 7.55616C6.4764 7.61228 6.2704 7.72717 6.09473 7.89063C5.91906 8.0541 5.77914 8.26111 5.68737 8.49332C5.5956 8.72553 5.55481 8.97577 5.56861 9.22188C5.58241 9.46799 5.65038 9.70237 5.7665 9.90426" stroke="#3A6FF8" stroke-width="1.5" stroke-linecap="round" stroke-linejoin="round"/>
<path d="M16.702 32.2315V4.16713C16.702 3.03322 16.5319 0.765391 19.2533 0.765391C21.9064 0.765391 22.4903 3.86919 21.0049 5.23535M16.702 32.2315C19.7379 32.2315 20.7417 29.5221 19.7135 27.7303M22.0359 3.16933C22.807 3.02858 23.6043 3.10998 24.357 3.40632C25.1098 3.70267 25.7947 4.20481 26.3513 4.86826C26.9079 5.53172 27.3188 6.33601 27.5477 7.2099C27.7767 8.08379 27.8166 9.0003 27.6638 9.87824C27.5111 10.7562 27.1705 11.5685 26.6721 12.2431C26.1738 12.9178 25.5331 13.434 24.8068 13.7461M24.8406 24.6361C25.0932 25.1252 25.2188 25.6893 25.2064 26.2784C25.1939 26.8675 25.0439 27.4634 24.7694 28.0135C24.495 28.5635 24.1046 29.0505 23.6329 29.4316C23.1612 29.8126 22.6228 30.0758 22.0653 30.1978C21.5078 30.3199 20.9484 30.297 20.4367 30.1313M26.6504 12.6328C27.1373 12.6878 27.6003 12.8773 27.9984 13.1845C28.3965 13.4917 28.7174 13.9071 28.9326 14.3939C29.1479 14.8807 29.2509 15.4239 29.2325 15.9754C29.2141 16.5268 29.0749 17.0695 28.8272 17.5554C28.5795 18.0412 28.231 18.4553 27.8124 18.7608C27.3939 19.0664 26.9184 19.254 26.4279 19.307M27.3626 19.2063C27.8426 19.5352 28.234 19.9775 28.5022 20.494C28.7703 21.0106 28.9068 21.5855 28.8997 22.1678C28.8926 22.7501 28.7421 23.3218 28.4614 23.8323C28.1808 24.3427 27.7787 24.7762 27.2907 25.0943C26.8028 25.4125 26.2441 25.6054 25.6642 25.656" stroke="#3A6FF8" stroke-width="1.5" stroke-linecap="round"/>
<path d="M23.3134 16.1855C22.8149 16.2895 22.2959 16.251 21.8026 16.0734C21.3092 15.8959 20.8566 15.5848 20.4849 15.1676C20.1132 14.7504 19.8339 14.2401 19.6717 13.6818C19.5094 13.1235 19.4693 12.5345 19.5549 11.9669" stroke="#3A6FF8" stroke-width="1.5" stroke-linecap="round" stroke-linejoin="round"/>
<path d="M20.7731 24.0671C21.3026 24.0447 21.8071 23.9025 22.2417 23.653C22.6764 23.4036 23.0279 23.0547 23.2651 22.6373C23.5022 22.2198 23.6178 21.7466 23.6014 21.2597" stroke="#3A6FF8" stroke-width="1.5" stroke-linecap="round" stroke-linejoin="round"/>
<path d="M19.8197 18.7494C19.713 19.019 19.6798 19.3036 19.723 19.5781C19.7663 19.8525 19.8846 20.1082 20.0677 20.3226C20.2507 20.537 20.4927 20.7035 20.7722 20.8073" stroke="#3A6FF8" stroke-width="1.5" stroke-linecap="round" stroke-linejoin="round"/>
<path d="M22.984 8.17158C23.1843 8.25935 23.3563 8.40205 23.4847 8.58704C23.6131 8.77204 23.694 8.99362 23.7202 9.23215C23.7463 9.47068 23.7169 9.71881 23.6347 9.95455C23.5524 10.1903 23.4197 10.4064 23.2485 10.5836C23.0772 10.7609 22.8726 10.8939 22.6528 10.9709" stroke="#3A6FF8" stroke-width="1.5" stroke-linecap="round" stroke-linejoin="round"/>
</svg>
