<svg width="22" height="22" viewBox="0 0 22 22" fill="none" xmlns="http://www.w3.org/2000/svg">
<path d="M11.1228 12.5656C11.1023 12.5656 11.0716 12.5656 11.0511 12.5656C11.0204 12.5656 10.9795 12.5656 10.9488 12.5656C8.62603 12.4939 6.88649 10.6828 6.88649 8.45207C6.88649 6.18045 8.73858 4.32835 11.0102 4.32835C13.2818 4.32835 15.1339 6.18045 15.1339 8.45207C15.1237 10.693 13.3739 12.4939 11.1535 12.5656C11.133 12.5656 11.133 12.5656 11.1228 12.5656ZM11 5.853C9.56742 5.853 8.41114 7.01952 8.41114 8.44184C8.41114 9.8437 9.50603 10.9795 10.8977 11.0307C10.9284 11.0204 11.0307 11.0204 11.133 11.0307C12.5042 10.959 13.5786 9.83347 13.5888 8.44184C13.5888 7.01952 12.4325 5.853 11 5.853Z" fill="#A9A9A9"/>
<path d="M11.0001 22.0001C8.24752 22.0001 5.61776 20.9768 3.58148 19.1145C3.39729 18.9508 3.31543 18.7052 3.3359 18.4698C3.46892 17.2522 4.22613 16.1163 5.48473 15.2773C8.53404 13.2512 13.4764 13.2512 16.5154 15.2773C17.774 16.1266 18.5312 17.2522 18.6643 18.4698C18.695 18.7154 18.6029 18.9508 18.4187 19.1145C16.3824 20.9768 13.7526 22.0001 11.0001 22.0001ZM4.94241 18.2652C6.64101 19.6875 8.77962 20.4652 11.0001 20.4652C13.2205 20.4652 15.3592 19.6875 17.0578 18.2652C16.8736 17.641 16.3824 17.0373 15.6559 16.5461C13.1387 14.868 8.87171 14.868 6.33404 16.5461C5.60752 17.0373 5.12659 17.641 4.94241 18.2652Z" fill="#A9A9A9"/>
<path d="M11 22C4.93209 22 0 17.0679 0 11C0 4.93209 4.93209 0 11 0C17.0679 0 22 4.93209 22 11C22 17.0679 17.0679 22 11 22ZM11 1.53488C5.7814 1.53488 1.53488 5.7814 1.53488 11C1.53488 16.2186 5.7814 20.4651 11 20.4651C16.2186 20.4651 20.4651 16.2186 20.4651 11C20.4651 5.7814 16.2186 1.53488 11 1.53488Z" fill="#A9A9A9"/>
</svg>
