<svg width="18" height="22" viewBox="0 0 18 22" fill="none" xmlns="http://www.w3.org/2000/svg">
<path d="M8.94367 19.6809C6.57383 19.6809 4.20399 19.3045 1.95619 18.5519C1.10183 18.2569 0.450887 17.6568 0.166099 16.8737C-0.12886 16.0905 -0.0271499 15.226 0.440716 14.453L1.61038 12.5103C1.85448 12.1035 2.07825 11.2898 2.07825 10.8118V7.87234C2.07825 4.08873 5.16006 1.00692 8.94367 1.00692C12.7273 1.00692 15.8091 4.08873 15.8091 7.87234V10.8118C15.8091 11.2796 16.0329 12.1035 16.277 12.5205L17.4365 14.453C17.8738 15.1853 17.9552 16.0702 17.6602 16.8737C17.3653 17.6772 16.7245 18.2874 15.921 18.5519C13.6834 19.3045 11.3135 19.6809 8.94367 19.6809ZM8.94367 2.53257C6.00425 2.53257 3.6039 4.92275 3.6039 7.87234V10.8118C3.6039 11.5542 3.29877 12.6527 2.92244 13.2935L1.75277 15.2361C1.52901 15.6125 1.46799 16.0091 1.60021 16.3448C1.72226 16.6906 2.02739 16.955 2.4444 17.0974C6.69588 18.5214 11.2016 18.5214 15.4531 17.0974C15.8193 16.9754 16.1041 16.7008 16.2363 16.3346C16.3685 15.9685 16.338 15.5718 16.1346 15.2361L14.9649 13.2935C14.5784 12.6324 14.2834 11.5441 14.2834 10.8016V7.87234C14.2834 4.92275 11.8933 2.53257 8.94367 2.53257Z" fill="#A9A9A9"/>
<path d="M10.8355 2.8072C10.7643 2.8072 10.6931 2.79702 10.6219 2.77668C10.3269 2.69531 10.0421 2.63429 9.76752 2.5936C8.90299 2.48172 8.06897 2.54275 7.2858 2.77668C7.00101 2.86822 6.69588 2.77668 6.50263 2.56309C6.30938 2.3495 6.24836 2.04437 6.36024 1.76975C6.77725 0.701799 7.79435 0 8.95384 0C10.1133 0 11.1304 0.691628 11.5474 1.76975C11.6492 2.04437 11.5983 2.3495 11.4051 2.56309C11.2525 2.72583 11.0389 2.8072 10.8355 2.8072Z" fill="#A9A9A9"/>
<path d="M8.94358 22C7.93665 22 6.96023 21.5932 6.24826 20.8812C5.53629 20.1692 5.12945 19.1928 5.12945 18.1859H6.6551C6.6551 18.786 6.89921 19.3759 7.32639 19.8031C7.75357 20.2302 8.34349 20.4744 8.94358 20.4744C10.2048 20.4744 11.2321 19.4471 11.2321 18.1859H12.7577C12.7577 20.2913 11.049 22 8.94358 22Z" fill="#A9A9A9"/>
</svg>
