<svg width="21" height="12" viewBox="0 0 21 12" fill="none" xmlns="http://www.w3.org/2000/svg">
<path d="M16.7265 8.33817C18.4025 8.27517 20.2317 6.25066 20.2317 3.72992C20.2317 2.32595 19.6668 1.16895 18.6951 1.16895C18.004 1.16895 17.5944 1.74477 17.1492 2.19003M16.7265 8.33817L17.1492 2.19003M16.7265 8.33817C16.6774 9.05257 16.23 9.67811 15.5518 9.90811C14.3355 10.3206 12.3045 10.9007 10.5 10.9007C8.69555 10.9007 6.66453 10.3206 5.44817 9.90811C4.77001 9.67811 4.32264 9.05257 4.27352 8.33817M3.85084 2.19003C3.40558 1.74477 2.99597 1.16895 2.30488 1.16895C1.33317 1.16895 0.768293 2.32595 0.768293 3.72992C0.768293 6.25066 2.59753 8.27517 4.27352 8.33817M3.85084 2.19003L4.27352 8.33817M3.85084 2.19003C3.84546 2.11184 3.89856 2.04167 3.97525 2.02558L9.44836 0.877375C10.1419 0.731875 10.8581 0.731875 11.5516 0.877374L17.0247 2.02558C17.1014 2.04167 17.1545 2.11184 17.1492 2.19003" stroke="#A9A9A9" stroke-width="1.5"/>
<path d="M6.91463 3.72992H14.0854" stroke="#A9A9A9" stroke-width="1.5" stroke-linecap="round"/>
<path d="M6.91463 6.80309H14.0854" stroke="#A9A9A9" stroke-width="1.5" stroke-linecap="round"/>
</svg>
