<svg width="18" height="17" viewBox="0 0 18 17" fill="none" xmlns="http://www.w3.org/2000/svg">
<path d="M5.4 4.37143H4.88571C2.94622 4.37143 1.97647 4.37143 1.37395 4.97395C0.771429 5.57647 0.771429 6.54622 0.771429 8.48571V12.0857C0.771429 14.0252 0.771429 14.995 1.37395 15.5975C1.97647 16.2 2.94622 16.2 4.88571 16.2H13.1143C15.0538 16.2 16.0235 16.2 16.626 15.5975C17.2286 14.995 17.2286 14.0252 17.2286 12.0857V8.48571C17.2286 6.54622 17.2286 5.57647 16.626 4.97395C16.0235 4.37143 15.0538 4.37143 13.1143 4.37143H12.6M5.4 4.37143V3.85714C5.4 2.40252 5.4 1.67521 5.85189 1.22332C6.30378 0.771429 7.03109 0.771429 8.48571 0.771429H9.51429C10.9689 0.771429 11.6962 0.771429 12.1481 1.22332C12.6 1.67521 12.6 2.40252 12.6 3.85714V4.37143M5.4 4.37143H12.6" stroke="#A9A9A9" stroke-width="1.5"/>
<path d="M7.90158 7.41907C7.84286 7.56084 7.84286 7.74056 7.84286 8.1V8.8344C7.84286 8.85186 7.84286 8.86058 7.83743 8.86601C7.83201 8.87143 7.82328 8.87143 7.80583 8.87143H7.07143C6.71199 8.87143 6.53227 8.87143 6.3905 8.93015C6.20148 9.00845 6.0513 9.15862 5.97301 9.34764C5.91429 9.48941 5.91429 9.66913 5.91429 10.0286C5.91429 10.388 5.91429 10.5677 5.97301 10.7095C6.0513 10.8985 6.20148 11.0487 6.3905 11.127C6.53227 11.1857 6.71199 11.1857 7.07143 11.1857H7.80583C7.82328 11.1857 7.83201 11.1857 7.83743 11.1911C7.84286 11.1966 7.84286 11.2053 7.84286 11.2227V11.9571C7.84286 12.3166 7.84286 12.4963 7.90158 12.6381C7.97987 12.8271 8.13005 12.9773 8.31907 13.0556C8.46084 13.1143 8.64056 13.1143 9 13.1143C9.35944 13.1143 9.53916 13.1143 9.68093 13.0556C9.86995 12.9773 10.0201 12.8271 10.0984 12.6381C10.1571 12.4963 10.1571 12.3166 10.1571 11.9571V11.2227C10.1571 11.2053 10.1571 11.1966 10.1626 11.1911C10.168 11.1857 10.1767 11.1857 10.1942 11.1857H10.9286C11.288 11.1857 11.4677 11.1857 11.6095 11.127C11.7985 11.0487 11.9487 10.8985 12.027 10.7095C12.0857 10.5677 12.0857 10.388 12.0857 10.0286C12.0857 9.66913 12.0857 9.48941 12.027 9.34764C11.9487 9.15862 11.7985 9.00845 11.6095 8.93015C11.4677 8.87143 11.288 8.87143 10.9286 8.87143H10.1942C10.1767 8.87143 10.168 8.87143 10.1626 8.86601C10.1571 8.86058 10.1571 8.85186 10.1571 8.8344V8.1C10.1571 7.74056 10.1571 7.56084 10.0984 7.41907C10.0201 7.23005 9.86995 7.07987 9.68093 7.00158C9.53916 6.94286 9.35944 6.94286 9 6.94286C8.64056 6.94286 8.46084 6.94286 8.31907 7.00158C8.13005 7.07987 7.97987 7.23005 7.90158 7.41907Z" fill="#A9A9A9"/>
</svg>
