<svg width="20" height="20" viewBox="0 0 20 20" fill="none" xmlns="http://www.w3.org/2000/svg">
<path d="M9.70292 0.204034L7.29219 5.81575H4.88145C4.48133 5.81575 4.09121 5.84576 3.71109 5.92578L4.7114 3.52505L4.75141 3.43502L4.81143 3.27497C4.84144 3.20495 4.86144 3.14493 4.89145 3.09492C6.05181 0.404095 7.3522 -0.436162 9.70292 0.204034Z" fill="#3A6FF8"/>
<path d="M16.4952 6.08577L16.4752 6.07577C15.875 5.90572 15.2648 5.81569 14.6446 5.81569H8.38269L10.6334 0.584094L10.6634 0.514073C10.8034 0.564088 10.9535 0.63411 11.1035 0.684125L13.3142 1.61441C14.5446 2.12456 15.4048 2.65473 15.935 3.29492C16.025 3.41496 16.105 3.52499 16.1851 3.65503C16.2751 3.79507 16.3451 3.93512 16.3851 4.08516C16.4251 4.17519 16.4551 4.25521 16.4752 4.34524C16.6252 4.8554 16.6352 5.43557 16.4952 6.08577Z" fill="#3A6FF8"/>
<path d="M10.2832 15.6588H10.5332C10.8333 15.6588 11.0834 15.3887 11.0834 15.0586C11.0834 14.6384 10.9634 14.5784 10.7033 14.4784L10.2832 14.3283V15.6588Z" fill="#3A6FF8"/>
<path d="M16.0549 7.51626C15.6048 7.38622 15.1346 7.3162 14.6445 7.3162H4.88149C4.20128 7.3162 3.56109 7.44624 2.9609 7.70632C1.22037 8.45655 0 10.1871 0 12.1977V14.1483C0 14.3884 0.0200061 14.6184 0.0500152 14.8585C0.270082 18.0395 1.9706 19.74 5.15157 19.9501C5.38164 19.9801 5.61171 20.0001 5.86179 20.0001H13.6642C17.3653 20.0001 19.3159 18.2395 19.506 14.7385C19.516 14.5484 19.526 14.3483 19.526 14.1483V12.1977C19.526 9.98701 18.0555 8.12645 16.0549 7.51626ZM11.0434 13.4981C11.5035 13.6581 12.1237 13.9982 12.1237 15.0586C12.1237 15.9688 11.4135 16.6991 10.5332 16.6991H10.2831V16.9191C10.2831 17.2092 10.0531 17.4393 9.76298 17.4393C9.47289 17.4393 9.24282 17.2092 9.24282 16.9191V16.6991H9.15279C8.1925 16.6991 7.40226 15.8888 7.40226 14.8885C7.40226 14.5984 7.63233 14.3684 7.92242 14.3684C8.21251 14.3684 8.44258 14.5984 8.44258 14.8885C8.44258 15.3086 8.76267 15.6587 9.15279 15.6587H9.24282V13.9682L8.48259 13.6981C8.02245 13.5381 7.40226 13.198 7.40226 12.1377C7.40226 11.2274 8.11248 10.4972 8.99274 10.4972H9.24282V10.2771C9.24282 9.98701 9.47289 9.75694 9.76298 9.75694C10.0531 9.75694 10.2831 9.98701 10.2831 10.2771V10.4972H10.3732C11.3335 10.4972 12.1237 11.3074 12.1237 12.3077C12.1237 12.5978 11.8936 12.8279 11.6035 12.8279C11.3135 12.8279 11.0834 12.5978 11.0834 12.3077C11.0834 11.8876 10.7633 11.5375 10.3732 11.5375H10.2831V13.228L11.0434 13.4981Z" fill="#3A6FF8"/>
<path d="M8.44252 12.1376C8.44252 12.5578 8.56255 12.6178 8.82263 12.7178L9.24276 12.8679V11.5375H8.99268C8.68259 11.5375 8.44252 11.8075 8.44252 12.1376Z" fill="#3A6FF8"/>
</svg>
