<svg width="20" height="22" viewBox="0 0 20 22" fill="none" xmlns="http://www.w3.org/2000/svg">
<path d="M5.88372 4.60465C5.46419 4.60465 5.11628 4.25674 5.11628 3.83721V0.767442C5.11628 0.347907 5.46419 0 5.88372 0C6.30326 0 6.65116 0.347907 6.65116 0.767442V3.83721C6.65116 4.25674 6.30326 4.60465 5.88372 4.60465Z" fill="#A9A9A9"/>
<path d="M14.0698 4.60465C13.6502 4.60465 13.3023 4.25674 13.3023 3.83721V0.767442C13.3023 0.347907 13.6502 0 14.0698 0C14.4893 0 14.8372 0.347907 14.8372 0.767442V3.83721C14.8372 4.25674 14.4893 4.60465 14.0698 4.60465Z" fill="#A9A9A9"/>
<path d="M18.6744 8.78961H1.27907C0.859535 8.78961 0.511628 8.4417 0.511628 8.02217C0.511628 7.60263 0.859535 7.25472 1.27907 7.25472H18.6744C19.094 7.25472 19.4419 7.60263 19.4419 8.02217C19.4419 8.4417 19.094 8.78961 18.6744 8.78961Z" fill="#A9A9A9"/>
<path d="M14.0698 22H5.88372C2.14884 22 0 19.8512 0 16.1163V7.4186C0 3.68372 2.14884 1.53488 5.88372 1.53488H14.0698C17.8047 1.53488 19.9535 3.68372 19.9535 7.4186V16.1163C19.9535 19.8512 17.8047 22 14.0698 22ZM5.88372 3.06977C2.95721 3.06977 1.53488 4.49209 1.53488 7.4186V16.1163C1.53488 19.0428 2.95721 20.4651 5.88372 20.4651H14.0698C16.9963 20.4651 18.4186 19.0428 18.4186 16.1163V7.4186C18.4186 4.49209 16.9963 3.06977 14.0698 3.06977H5.88372Z" fill="#A9A9A9"/>
<path d="M6.39535 13.5582C6.26233 13.5582 6.1293 13.5275 6.00651 13.4763C5.88372 13.4251 5.77117 13.3535 5.66885 13.2614C5.57675 13.1591 5.5051 13.0465 5.45394 12.9237C5.40278 12.8009 5.37209 12.6679 5.37209 12.5349C5.37209 12.2688 5.48466 12.0028 5.66885 11.8084C5.77117 11.7163 5.88372 11.6446 6.00651 11.5935C6.19069 11.5116 6.39536 11.4912 6.60001 11.5321C6.66141 11.5423 6.7228 11.5628 6.78419 11.5935C6.84559 11.614 6.90697 11.6447 6.96837 11.6856C7.01953 11.7265 7.07069 11.7675 7.12185 11.8084C7.16278 11.8596 7.21394 11.9107 7.24464 11.9619C7.28557 12.0233 7.31629 12.0847 7.33676 12.1461C7.36746 12.2074 7.38792 12.2688 7.39815 12.3302C7.40838 12.4019 7.4186 12.4633 7.4186 12.5349C7.4186 12.8009 7.30604 13.067 7.12185 13.2614C6.92743 13.4456 6.6614 13.5582 6.39535 13.5582Z" fill="#A9A9A9"/>
<path d="M9.97674 13.558C9.7107 13.558 9.44466 13.4454 9.25024 13.2613C9.20931 13.2101 9.16839 13.1589 9.12746 13.1078C9.08653 13.0464 9.0558 12.985 9.03534 12.9236C9.00464 12.8622 8.98417 12.8008 8.97394 12.7394C8.96371 12.6678 8.95349 12.6064 8.95349 12.5348C8.95349 12.4017 8.98417 12.2687 9.03534 12.1459C9.0865 12.0231 9.15815 11.9106 9.25024 11.8083C9.53675 11.5217 9.99721 11.4296 10.3656 11.5933C10.4986 11.6445 10.6009 11.7162 10.7032 11.8083C10.8874 12.0027 11 12.2687 11 12.5348C11 12.6064 10.9898 12.6678 10.9795 12.7394C10.9693 12.8008 10.9489 12.8622 10.9182 12.9236C10.8977 12.985 10.867 13.0464 10.826 13.1078C10.7851 13.1589 10.7442 13.2101 10.7032 13.2613C10.6009 13.3533 10.4986 13.425 10.3656 13.4762C10.2428 13.5273 10.1098 13.558 9.97674 13.558Z" fill="#A9A9A9"/>
<path d="M6.39535 17.1394C6.26233 17.1394 6.1293 17.1087 6.00651 17.0576C5.88372 17.0064 5.77117 16.9347 5.66885 16.8427C5.57675 16.7403 5.5051 16.638 5.45394 16.505C5.40278 16.3822 5.37209 16.2492 5.37209 16.1161C5.37209 15.8501 5.48466 15.5841 5.66885 15.3896C5.77117 15.2976 5.88372 15.2259 6.00651 15.1747C6.38511 15.011 6.83534 15.1031 7.12185 15.3896C7.16278 15.4408 7.21394 15.492 7.24464 15.5431C7.28557 15.6045 7.31629 15.6659 7.33676 15.7273C7.36746 15.7887 7.38792 15.8501 7.39815 15.9217C7.40838 15.9831 7.4186 16.0548 7.4186 16.1161C7.4186 16.3822 7.30604 16.6482 7.12185 16.8427C6.92743 17.0268 6.6614 17.1394 6.39535 17.1394Z" fill="#A9A9A9"/>
</svg>
